<svg width="85" height="85" viewBox="0 0 85 85" fill="none" xmlns="http://www.w3.org/2000/svg">
<g clip-path="url(#clip0)">
<path fill-rule="evenodd" clip-rule="evenodd" d="M35.3553 31.8198C34.379 30.8435 32.7961 30.8435 31.8198 31.8198C30.8435 32.7961 30.8435 34.379 31.8198 35.3553L38.8909 42.4264L31.8198 49.4975C30.8435 50.4738 30.8435 52.0567 31.8198 53.033C32.7961 54.0093 34.379 54.0093 35.3553 53.033L42.4264 45.9619L49.4975 53.033C50.4738 54.0093 52.0567 54.0093 53.033 53.033C54.0093 52.0567 54.0093 50.4738 53.033 49.4975L45.9619 42.4264L53.033 35.3553C54.0093 34.379 54.0093 32.7961 53.033 31.8198C52.0567 30.8435 50.4738 30.8435 49.4975 31.8198L42.4264 38.8909L35.3553 31.8198Z" fill="#3C3846"/>
</g>
<defs>
<clipPath id="clip0">
<rect width="60" height="60" fill="white" transform="translate(0 42.4264) rotate(-45)"/>
</clipPath>
</defs>
</svg>
