<svg width="36" height="36" viewBox="0 0 36 36" fill="none" xmlns="http://www.w3.org/2000/svg">
<g clip-path="url(#clip0)">
<path d="M18.0736 3.49029C17.7746 3.49029 17.4888 3.61279 17.2832 3.82862L9.62693 11.8495C8.96339 12.5436 9.4563 13.6986 10.4173 13.6986H14.4278V22.084C14.4278 23.0888 15.2459 23.907 16.2507 23.907H19.8965C20.9013 23.907 21.7194 23.0888 21.7194 22.084V13.6986H25.7298C26.6909 13.6986 27.1838 12.5436 26.5203 11.8495L18.864 3.82862C18.6584 3.61279 18.3726 3.49029 18.0736 3.49029Z" fill="#3C3846"/>
<path d="M33.0215 32.6569H3.12568C1.71839 32.6569 0.573601 31.5122 0.573601 30.1049V29.3757C0.573601 27.9684 1.71839 26.8236 3.12568 26.8236H33.0215C34.4288 26.8236 35.5736 27.9684 35.5736 29.3757V30.1049C35.5736 31.5122 34.4288 32.6569 33.0215 32.6569Z" fill="#3C3846"/>
</g>
<defs>
<clipPath id="clip0">
<rect width="35" height="35" fill="white" transform="translate(0.573608 0.573608)"/>
</clipPath>
</defs>
</svg>
