<svg width="35" height="35" viewBox="0 0 35 35" fill="none" xmlns="http://www.w3.org/2000/svg">
<g clip-path="url(#clip0)">
<path d="M17.5 2.91668C17.201 2.91668 16.9152 3.03918 16.7096 3.25501L9.05333 11.2758C8.38979 11.97 8.8827 13.125 9.84375 13.125H13.8542V21.5104C13.8542 22.5152 14.6723 23.3333 15.6771 23.3333H19.3229C20.3277 23.3333 21.1458 22.5152 21.1458 21.5104V13.125H25.1562C26.1173 13.125 26.6102 11.97 25.9467 11.2758L18.2904 3.25501C18.0848 3.03918 17.799 2.91668 17.5 2.91668V2.91668Z" fill="white"/>
<path d="M32.4479 32.0833H2.55208C1.14479 32.0833 0 30.9385 0 29.5313V28.8021C0 27.3948 1.14479 26.25 2.55208 26.25H32.4479C33.8552 26.25 35 27.3948 35 28.8021V29.5313C35 30.9385 33.8552 32.0833 32.4479 32.0833Z" fill="white"/>
</g>
<defs>
<clipPath id="clip0">
<rect width="35" height="35" fill="white"/>
</clipPath>
</defs>
</svg>
