<svg width="54" height="48" viewBox="0 0 54 48" fill="none" xmlns="http://www.w3.org/2000/svg">
<g clip-path="url(#clip0)">
<path d="M41.6127 27.9109C39.4462 35.9068 31.1982 40.6687 23.1903 38.5467C15.1823 36.4248 10.447 28.2226 12.6135 20.2267C14.78 12.2307 23.028 7.46888 31.0359 9.59081C39.0438 11.7127 43.7792 19.9149 41.6127 27.9109Z" stroke="#3C3846" stroke-width="5"/>
<ellipse rx="10.5" ry="8.5" transform="matrix(0.96664 0.256139 -0.261523 0.965197 23.667 13.8452)" fill="white"/>
<path d="M9.93162 15.1759C8.69795 14.0886 9.24529 12.0575 10.8625 11.7214L21.8061 9.44749C22.5356 9.29591 23.1663 9.96209 22.9728 10.6799L20.333 20.4762C19.9461 21.9118 18.1815 22.4468 17.0686 21.4659L9.93162 15.1759Z" fill="#3C3846"/>
<rect width="10.7076" height="12" transform="matrix(0.706373 0.704422 -0.709805 0.707816 32.287 2.32047)" fill="white"/>
</g>
<defs>
<clipPath id="clip0">
<rect width="44.9668" height="37" fill="white" transform="matrix(0.96664 0.256139 -0.261523 0.965197 10.2019 0.449493)"/>
</clipPath>
</defs>
</svg>
