<svg width="50" height="50" viewBox="0 0 50 50" fill="none" xmlns="http://www.w3.org/2000/svg">
<g clip-path="url(#clip0)">
<path d="M42.2132 28.5068C40.0691 36.5088 31.844 41.2576 23.842 39.1134C15.8401 36.9693 11.0913 28.7442 13.2354 20.7423C15.3796 12.7403 23.6046 7.99152 31.6066 10.1356C39.6086 12.2798 44.3573 20.5048 42.2132 28.5068Z" stroke="white" stroke-width="5"/>
<ellipse cx="24.2581" cy="14.3783" rx="10.5" ry="8.5" transform="rotate(15 24.2581 14.3783)" fill="#53555F"/>
<path d="M10.545 15.6779C9.31039 14.5862 9.85205 12.5535 11.4662 12.2209L22.3892 9.96998C23.1173 9.81994 23.7487 10.4886 23.5573 11.2069L20.9448 21.0107C20.562 22.4473 18.8012 22.9788 17.6874 21.9939L10.545 15.6779Z" fill="white"/>
<rect x="32.8383" y="2.85809" width="10.7076" height="12" transform="rotate(45 32.8383 2.85809)" fill="#53555F"/>
</g>
<defs>
<clipPath id="clip0">
<rect width="40" height="40" fill="white" transform="translate(10.7791 0.931488) rotate(15)"/>
</clipPath>
</defs>
</svg>
