<svg width="20" height="44" viewBox="0 0 20 44" fill="none" xmlns="http://www.w3.org/2000/svg">
<path d="M19.21 2.65601C19.21 1.55144 18.3131 0.656006 17.2086 0.656006C9.28656 0.656006 3.01059 0.656006 2.40637 0.656006C1.54177 0.656006 0.84082 1.4166 0.84082 2.35477V42.2191C0.84082 43.1572 1.54177 43.9178 2.40637 43.9178H17.21C18.3145 43.9178 19.21 43.0224 19.21 41.9178V2.65601ZM14.0958 23.9857C13.2312 23.9857 12.5303 23.2251 12.5303 22.2869V20.4749C12.5303 19.5367 13.2312 18.7761 14.0958 18.7761C14.9604 18.7761 15.6614 19.5367 15.6614 20.4749V22.2869C15.6614 23.2251 14.9604 23.9857 14.0958 23.9857Z" fill="#3C3846"/>
</svg>
