<svg width="42" height="41" viewBox="0 0 42 41" fill="none" xmlns="http://www.w3.org/2000/svg">
<path d="M38.0514 3.4758C35.8692 1.33448 32.9678 0.155273 29.8816 0.155273C26.7953 0.155273 23.8939 1.33448 21.7117 3.4758C19.8437 5.3086 18.6994 7.63587 18.4022 10.2059C18.1257 12.5962 18.6373 15.0358 19.8447 17.1117L0.615234 35.9801L4.92525 40.2093L7.17717 37.9996L9.62228 40.3988L13.651 36.4456L11.2059 34.0464L14.2234 31.0856L16.6685 33.4848L20.6973 29.5317L18.2522 27.1325L24.1546 21.3408C26.2703 22.5255 28.7562 23.0273 31.1926 22.7563C33.8118 22.4646 36.1835 21.3417 38.0514 19.5089C40.2338 17.3675 41.4355 14.5206 41.4355 11.4924C41.4355 8.46409 40.2337 5.61704 38.0514 3.4758ZM35.1627 11.9672C34.368 12.747 33.324 13.1369 32.2801 13.1369C31.2362 13.1369 30.1923 12.747 29.3975 11.9672C27.808 10.4075 27.808 7.86985 29.3975 6.31019C30.987 4.75053 33.5732 4.75053 35.1627 6.31019C36.7521 7.86985 36.7521 10.4076 35.1627 11.9672Z" fill="white"/>
</svg>