<svg width="34" height="34" viewBox="0 0 34 34" fill="none" xmlns="http://www.w3.org/2000/svg">
<path fill-rule="evenodd" clip-rule="evenodd" d="M27.4167 11.5833C27.4167 8.8219 25.1781 6.5833 22.4167 6.5833H11.5833C8.82191 6.5833 6.58331 8.8219 6.58331 11.5833V22.4167C6.58331 25.1781 8.82191 27.4167 11.5833 27.4167H22.4167C25.1781 27.4167 27.4167 25.1781 27.4167 22.4167V11.5833ZM5.33331 0.333328C2.57191 0.333328 0.333344 2.5719 0.333344 5.3333V28.6667C0.333344 31.4281 2.57191 33.6667 5.33331 33.6667H28.6667C31.4281 33.6667 33.6667 31.4281 33.6667 28.6667V5.3333C33.6667 2.5719 31.4281 0.333328 28.6667 0.333328H5.33331Z" fill="#3C3846"/>
</svg>
