<svg width="50" height="50" viewBox="0 0 50 50" fill="none" xmlns="http://www.w3.org/2000/svg">
<path fill-rule="evenodd" clip-rule="evenodd" d="M35.4167 19.5833C35.4167 16.8219 33.1781 14.5833 30.4167 14.5833H19.5833C16.8219 14.5833 14.5833 16.8219 14.5833 19.5833V30.4167C14.5833 33.1781 16.8219 35.4167 19.5833 35.4167H30.4167C33.1781 35.4167 35.4167 33.1781 35.4167 30.4167V19.5833ZM13.3333 8.33333C10.5719 8.33333 8.33333 10.5719 8.33333 13.3333V36.6667C8.33333 39.4281 10.5719 41.6667 13.3333 41.6667H36.6667C39.4281 41.6667 41.6667 39.4281 41.6667 36.6667V13.3333C41.6667 10.5719 39.4281 8.33333 36.6667 8.33333H13.3333Z" fill="white"/>
</svg>