<svg width="37" height="34" viewBox="0 0 37 34" fill="none" xmlns="http://www.w3.org/2000/svg">
<path d="M4.22803 6.53555C2.25541 6.53555 0.65625 5.22181 0.65625 3.60112C0.65625 1.98043 2.25541 0.666687 4.22803 0.666687H32.8022C34.7749 0.666687 36.374 1.98043 36.374 3.60112C36.374 5.22181 34.7749 6.53555 32.8022 6.53555H4.22803Z" fill="#3C3846"/>
<path d="M9.58569 15.3388C8.35281 15.3388 7.35333 14.025 7.35333 12.4043C7.35333 10.7837 8.35281 9.46991 9.58569 9.46991H27.4446C28.6775 9.46991 29.6769 10.7837 29.6769 12.4043C29.6769 14.025 28.6775 15.3388 27.4446 15.3388H9.58569Z" fill="#3C3846"/>
<path d="M6.01392 25.0643C4.28787 25.0643 2.88861 23.7506 2.88861 22.1299C2.88861 20.5092 4.28787 19.1954 6.01392 19.1954H31.0164C32.7425 19.1954 34.1417 20.5092 34.1417 22.1299C34.1417 23.7506 32.7425 25.0643 31.0164 25.0643H6.01392Z" fill="#3C3846"/>
<path d="M9.58569 33.8676C8.35281 33.8676 7.35333 32.5538 7.35333 30.9332C7.35333 29.3125 8.35281 27.9987 9.58569 27.9987H27.4446C28.6775 27.9987 29.6769 29.3125 29.6769 30.9332C29.6769 32.5538 28.6775 33.8676 27.4446 33.8676H9.58569Z" fill="#3C3846"/>
</svg>
