<svg width="50" height="56" viewBox="0 0 50 56" fill="none" xmlns="http://www.w3.org/2000/svg">
<rect x="4" y="5" width="42" height="9" rx="4" fill="white"/>
<rect x="4" y="5" width="42" height="9" rx="4" fill="white"/>
<rect x="4" y="5" width="42" height="9" rx="4" fill="white"/>
<rect x="4" y="5" width="42" height="9" rx="4" fill="white"/>
<rect x="14" width="22" height="8" rx="4" fill="white"/>
<rect x="14" width="22" height="8" rx="4" fill="white"/>
<rect x="14" width="22" height="8" rx="4" fill="white"/>
<rect x="14" width="22" height="8" rx="4" fill="white"/>
<path d="M9.1648 18.1527C9.07589 16.9913 9.99423 16 11.159 16H38.841C40.0058 16 40.9241 16.9913 40.8352 18.1527L38.8272 44.3817C38.6278 46.9874 36.4552 49 33.8418 49H16.1582C13.5448 49 11.3722 46.9874 11.1728 44.3817L9.1648 18.1527Z" fill="white"/>
</svg>
