<svg width="65" height="65" viewBox="0 0 65 65" fill="none" xmlns="http://www.w3.org/2000/svg">
<path d="M38.4375 23.0625C40.3705 23.0625 41.9375 24.6295 41.9375 26.5625V38.4375C41.9375 40.3705 40.3705 41.9375 38.4375 41.9375H26.5625C24.6295 41.9375 23.0625 40.3705 23.0625 38.4375V26.5625C23.0625 24.6295 24.6295 23.0625 26.5625 23.0625H38.4375ZM20 13.5C16.4101 13.5 13.5 16.4101 13.5 20V45C13.5 48.5899 16.4101 51.5 20 51.5H45C48.5899 51.5 51.5 48.5899 51.5 45V20C51.5 16.4101 48.5899 13.5 45 13.5H20Z" fill="white" stroke="#2B2C31" stroke-width="3"/>
<rect x="21" y="18" width="23" height="26" fill="#53555F"/>
<path fill-rule="evenodd" clip-rule="evenodd" d="M43.4375 26.5625C43.4375 23.8011 41.1989 21.5625 38.4375 21.5625H26.5625C23.8011 21.5625 21.5625 23.8011 21.5625 26.5625V38.4375C21.5625 41.1989 23.8011 43.4375 26.5625 43.4375H38.4375C41.1989 43.4375 43.4375 41.1989 43.4375 38.4375V26.5625ZM20 15C17.2386 15 15 17.2386 15 20V45C15 47.7614 17.2386 50 20 50H45C47.7614 50 50 47.7614 50 45V20C50 17.2386 47.7614 15 45 15H20Z" fill="white"/>
<path d="M25 29.5C24.1716 29.5 23.5 30.1716 23.5 31V34C23.5 34.8284 24.1716 35.5 25 35.5H28C28.8284 35.5 29.5 34.8284 29.5 34V31C29.5 30.1716 28.8284 29.5 28 29.5H25Z" fill="white" stroke="#2B2C31"/>
<path d="M25 35.5C24.1716 35.5 23.5 36.1716 23.5 37V40C23.5 40.8284 24.1716 41.5 25 41.5H28C28.8284 41.5 29.5 40.8284 29.5 40V37C29.5 36.1716 28.8284 35.5 28 35.5H25Z" fill="white" stroke="#2B2C31"/>
<rect x="29.5" y="35.5" width="6" height="6" rx="1.5" fill="white" stroke="#2B2C31"/>
<path d="M39.9762 24.619C39.9762 24.0799 39.5391 23.6429 39 23.6429C38.4609 23.6429 38.0238 24.0799 38.0238 24.619V26.0238H36.619C36.0799 26.0238 35.6429 26.4608 35.6429 27C35.6429 27.5391 36.0799 27.9762 36.619 27.9762H38.0238V29.3809C38.0238 29.9201 38.4609 30.3571 39 30.3571C39.5391 30.3571 39.9762 29.9201 39.9762 29.3809V27.9762H41.381C41.9201 27.9762 42.3571 27.5391 42.3571 27C42.3571 26.4609 41.9201 26.0238 41.381 26.0238H39.9762V24.619Z" fill="white" stroke="#2B2C31"/>
</svg>
