<svg width="50" height="50" viewBox="0 0 50 50" fill="none" xmlns="http://www.w3.org/2000/svg">
<path d="M12 24H20.2174C20.4826 24 20.6976 24.2125 20.6976 24.4747V28.2329C20.6976 28.4951 20.9127 28.7077 21.1779 28.7077H30.7826C31.0478 28.7077 31.2628 28.4951 31.2628 28.2329V24.4747C31.2628 24.2125 31.4779 24 31.7431 24H39V42H12V24Z" fill="white"/>
<path d="M39 21H12V9H39V21Z" fill="white"/>
<path d="M4 13.5714C4 11.0467 6.00221 9 8.47205 9H9.71429V19.6667H12V21H4V13.5714Z" fill="white"/>
<path d="M47 13.5714C47 11.0467 44.9978 9 42.5279 9H41.2857V19.6667H39V21H47V13.5714Z" fill="white"/>
<path d="M41.2857 24H47V42H41.2857V25.3846H39V24H41.2857Z" fill="white"/>
<path d="M4 24H9.71429H12V25.4434H9.71429V42H4V24Z" fill="white"/>
<path d="M28.5714 24H23.4286C23.1919 24 23 24.2239 23 24.5V26.5C23 26.7761 23.1919 27 23.4286 27H28.5714C28.8081 27 29 26.7761 29 26.5V24.5C29 24.2239 28.8081 24 28.5714 24Z" fill="white"/>
</svg>

