<svg width="50" height="50" viewBox="0 0 50 50" fill="none" xmlns="http://www.w3.org/2000/svg">
<path d="M39.1422 10.8578C35.3647 7.08031 30.3422 5 25 5C19.6578 5 14.6353 7.08031 10.8578 10.8578C7.08031 14.6353 5 19.6578 5 25C5 30.3422 7.08039 35.3646 10.8578 39.1422C14.6352 42.9198 19.6578 45 25 45C30.3422 45 35.3647 42.9197 39.1422 39.1422C42.9197 35.3647 45 30.3422 45 25C45 19.6578 42.9196 14.6354 39.1422 10.8578ZM25 23.75C28.1016 23.75 30.625 26.2734 30.625 29.375C30.625 31.9435 28.894 34.114 26.5377 34.7846C26.3684 34.8328 26.25 34.9851 26.25 35.1611V36.2147C26.25 36.8878 25.7327 37.467 25.0604 37.4986C24.3425 37.5323 23.75 36.9604 23.75 36.25V35.1609C23.75 34.9853 23.6323 34.833 23.4635 34.7849C21.1173 34.1177 19.3907 31.9636 19.3751 29.4099C19.3709 28.7283 19.9069 28.1451 20.5883 28.1255C21.2954 28.1052 21.875 28.6724 21.875 29.375C21.875 31.172 23.3998 32.6197 25.2234 32.4922C26.7627 32.3846 28.0097 31.1376 28.1172 29.5982C28.2445 27.7745 26.797 26.25 25 26.25C21.8984 26.25 19.375 23.7266 19.375 20.625C19.375 18.0565 21.106 15.886 23.4623 15.2154C23.6316 15.1672 23.75 15.0149 23.75 14.8389V13.7853C23.75 13.1122 24.2673 12.533 24.9396 12.5014C25.6575 12.4677 26.25 13.0396 26.25 13.75V14.8391C26.25 15.0147 26.3677 15.167 26.5365 15.2151C28.8827 15.8823 30.6093 18.0364 30.6249 20.5901C30.6291 21.2717 30.0931 21.8549 29.4117 21.8745C28.7046 21.8948 28.125 21.3276 28.125 20.625C28.125 18.828 26.6002 17.3803 24.7766 17.5078C23.2373 17.6154 21.9903 18.8624 21.8828 20.4018C21.7555 22.2255 23.203 23.75 25 23.75Z" fill="white"/>
</svg>