<svg width="50" height="50" viewBox="0 0 50 50" fill="none" xmlns="http://www.w3.org/2000/svg">
<path d="M41.1422 10.8578C37.3647 7.08031 32.3422 5 27 5C21.6578 5 16.6353 7.08031 12.8578 10.8578C9.08031 14.6353 7 19.6578 7 25C7 30.3422 9.08039 35.3646 12.8578 39.1422C16.6352 42.9198 21.6578 45 27 45C32.3422 45 37.3647 42.9197 41.1422 39.1422C44.9197 35.3647 47 30.3422 47 25C47 19.6578 44.9196 14.6354 41.1422 10.8578V10.8578ZM27 23.75C30.1016 23.75 32.625 26.2734 32.625 29.375C32.625 31.9435 30.894 34.114 28.5377 34.7846C28.3684 34.8328 28.25 34.9851 28.25 35.1611V36.2147C28.25 36.8878 27.7327 37.467 27.0604 37.4986C26.3425 37.5323 25.75 36.9604 25.75 36.25V35.1609C25.75 34.9853 25.6323 34.833 25.4635 34.7849C23.1173 34.1177 21.3907 31.9636 21.3751 29.4099C21.3709 28.7283 21.9069 28.1451 22.5883 28.1255C23.2954 28.1052 23.875 28.6724 23.875 29.375C23.875 31.172 25.3998 32.6197 27.2234 32.4922C28.7627 32.3846 30.0097 31.1376 30.1172 29.5982C30.2445 27.7745 28.797 26.25 27 26.25C23.8984 26.25 21.375 23.7266 21.375 20.625C21.375 18.0565 23.106 15.886 25.4623 15.2154C25.6316 15.1672 25.75 15.0149 25.75 14.8389V13.7853C25.75 13.1122 26.2673 12.533 26.9396 12.5014C27.6575 12.4677 28.25 13.0396 28.25 13.75V14.8391C28.25 15.0147 28.3677 15.167 28.5365 15.2151C30.8827 15.8823 32.6093 18.0364 32.6249 20.5901C32.6291 21.2717 32.0931 21.8549 31.4117 21.8745C30.7046 21.8948 30.125 21.3276 30.125 20.625C30.125 18.828 28.6002 17.3803 26.7766 17.5078C25.2373 17.6154 23.9903 18.8624 23.8828 20.4018C23.7555 22.2255 25.203 23.75 27 23.75V23.75Z" fill="white"/>
</svg>
