<svg width="50" height="50" viewBox="0 0 50 50" fill="none" xmlns="http://www.w3.org/2000/svg">
<path d="M26.2639 33.8228L26.2638 33.8228C25.6779 33.9897 25.25 34.5247 25.25 35.1611V36.2147C25.25 36.3914 25.1155 36.4949 25.0134 36.4997C24.8683 36.5065 24.75 36.3923 24.75 36.25V35.1609C24.75 34.528 24.3257 33.9906 23.7372 33.8231L23.737 33.8231C21.8061 33.274 20.3879 31.5 20.3751 29.4038C20.3746 29.329 20.4038 29.2571 20.4545 29.203C20.5038 29.1504 20.5611 29.1267 20.6169 29.1251L20.617 29.1251C20.7591 29.121 20.875 29.2343 20.875 29.375C20.875 31.7474 22.8868 33.658 25.2931 33.4898C27.3298 33.3474 28.9725 31.7046 29.1148 29.6679C29.2828 27.2615 27.3723 25.25 25 25.25C22.4506 25.25 20.375 23.1744 20.375 20.625C20.375 18.5165 21.7968 16.7291 23.7361 16.1772L23.7362 16.1772C24.3221 16.0103 24.75 15.4753 24.75 14.8389V13.7853C24.75 13.6086 24.8844 13.5051 24.9866 13.5003C25.1317 13.4935 25.25 13.6077 25.25 13.75V14.8391C25.25 15.472 25.6742 16.0094 26.2628 16.1769L26.263 16.1769C28.1939 16.726 29.6121 18.5 29.6249 20.5962C29.6254 20.6709 29.5962 20.7429 29.5455 20.797C29.4962 20.8496 29.4389 20.8733 29.3831 20.8749L29.383 20.8749C29.2409 20.8789 29.125 20.7657 29.125 20.625C29.125 18.2526 27.1132 16.342 24.7069 16.5102C22.6702 16.6526 21.0275 18.2954 20.8852 20.3321C20.7172 22.7385 22.6277 24.75 25 24.75C27.5494 24.75 29.625 26.8256 29.625 29.375C29.625 31.4835 28.2032 33.2709 26.2639 33.8228ZM39.8493 10.1507C35.8843 6.18566 30.6074 4 25 4C19.3926 4 14.1157 6.18566 10.1507 10.1507C6.18566 14.1157 4 19.3926 4 25C4 30.6074 6.18575 35.8842 10.1507 39.8493C14.1157 43.8144 19.3926 46 25 46C30.6074 46 35.8843 43.8143 39.8493 39.8493C43.8143 35.8843 46 30.6074 46 25C46 19.3926 43.8142 14.1158 39.8493 10.1507L39.1422 10.8578L39.8493 10.1507Z" fill="white" stroke="#383838" stroke-width="2"/>
</svg>

