<svg width="50" height="50" viewBox="0 0 50 50" fill="none" xmlns="http://www.w3.org/2000/svg">
<path d="M48.0869 41.4326C47.3886 40.6132 46.2315 40.0156 44.8245 39.7503L44.2464 39.641L44.8245 39.5317C46.2289 39.2657 47.3886 38.668 48.0843 37.8485C48.7827 37.0291 48.9373 36.086 48.5199 35.1945C48.1024 34.3013 47.1618 33.5646 45.8733 33.1209C44.5797 32.6756 43.0902 32.579 41.6934 32.8459L25.0014 36.0024L8.30632 32.8459C6.90697 32.5815 5.42016 32.6773 4.12644 33.121C2.83792 33.5647 1.89734 34.3015 1.47987 35.1938C1.06241 36.0861 1.21702 37.0292 1.9154 37.8486C2.61118 38.6681 3.77082 39.2657 5.17524 39.5309L5.75537 39.6406L5.17524 39.7503C2.72313 40.2138 1.17954 41.6767 1.27504 43.2299L1.2738 43.2377L1.27479 43.2409C1.29347 43.5221 1.34789 43.8049 1.48 44.0867C1.89747 44.9798 2.83804 45.7166 4.12656 46.1602C4.74009 46.3712 5.40235 46.4772 6.07376 46.5297C6.22257 46.5666 6.38188 46.5909 6.55147 46.5909C6.60701 46.5909 6.65859 46.5816 6.71388 46.5805C6.71994 46.5805 6.72575 46.5819 6.73194 46.5819C6.762 46.5819 6.79168 46.5738 6.82186 46.5735C7.16883 46.562 7.50552 46.5317 7.83171 46.4795C7.98954 46.459 8.15034 46.4649 8.30657 46.4353L25.0009 43.2792L37.2966 45.604L37.764 45.7067C37.8205 45.719 37.8804 45.7179 37.9388 45.7253L41.6939 46.4353C42.1166 46.5155 42.5572 46.5581 43.0778 46.5687C43.1371 46.6023 43.2015 46.572 43.2634 46.5712C45.6857 46.5712 47.8298 45.5634 48.5204 44.0874C48.9373 43.1943 48.7827 42.2521 48.0869 41.4326Z" fill="white"/>
<path d="M25.3931 34.0029C16.8814 34.0029 10.0134 30.944 10.0134 24.8117C10.0134 24.5026 9.98325 22.2863 10.0134 21.9997L10.041 21.7194C10.511 17.3337 12.2852 14.3569 14.7681 11.9471C16.9871 9.79248 19.9424 8.17876 19.9424 5.48056C19.9424 5.13553 19.9633 3.58247 20.3931 3.42436C20.8204 3.26798 22.5036 4.3594 22.8931 4.56073C27.0848 6.72164 28.8409 10.4463 29.7681 13.0835C30.4566 15.0494 30.4996 17.5224 30.5298 19.0975C33.2514 18.2726 34.1033 14.9608 34.1133 14.923C34.1836 14.6382 33.7812 13.7828 34.1431 13.6516C34.5025 13.5223 35.5809 14.126 35.9453 14.2545C36.1339 14.3201 40.5592 15.9402 40.8105 22.2459C40.8306 22.457 40.8306 22.67 40.8306 22.882C40.8305 29.0144 33.9046 34.0029 25.3931 34.0029Z" fill="white"/>
<path d="M24.7564 35.2425C20.2701 35.2425 16.6502 33.7655 16.6502 30.8044C16.6502 30.6552 16.6343 29.585 16.6502 29.4466L16.6648 29.3112C16.9125 27.1936 17.8476 25.7562 19.1563 24.5925C20.3259 23.5521 21.8835 22.7729 21.8835 21.4701C21.8835 21.3035 21.8945 20.5535 22.1211 20.4772C22.3463 20.4017 23.2335 20.9287 23.4387 21.0259C25.6481 22.0693 26.5736 23.8679 27.0624 25.1412C27.4253 26.0905 27.4479 27.2847 27.4638 28.0452C28.8983 27.6469 29.3473 26.0478 29.3526 26.0295C29.3897 25.892 29.1776 25.479 29.3683 25.4156C29.5577 25.3531 30.1261 25.6447 30.3182 25.7067C30.4176 25.7384 32.7501 26.5207 32.8825 29.5655C32.8931 29.6674 32.8931 29.7703 32.8931 29.8727C32.8931 32.8338 29.2426 35.2425 24.7564 35.2425Z" fill="#2B2C31"/>
</svg>
