<svg width="50" height="50" viewBox="0 0 50 50" fill="none" xmlns="http://www.w3.org/2000/svg">
<mask id="path-1-outside-1" maskUnits="userSpaceOnUse" x="0" y="30" width="49" height="17" fill="black">
<rect fill="white" y="30" width="49" height="17"/>
<path d="M45.3997 40.1732C44.7676 39.4064 43.7201 38.8472 42.4464 38.599L41.9231 38.4967L42.4464 38.3944C43.7178 38.1455 44.7676 37.5862 45.3974 36.8194C46.0296 36.0526 46.1696 35.1701 45.7917 34.3359C45.4138 33.5001 44.5623 32.8107 43.3958 32.3956C42.2248 31.9789 40.8764 31.8885 39.6119 32.1382L24.5013 35.0919L9.3878 32.1382C8.12105 31.8908 6.77509 31.9805 5.60394 32.3956C4.43749 32.8108 3.58601 33.5003 3.20809 34.3353C2.83018 35.1702 2.97014 36.0527 3.60236 36.8195C4.23223 37.5863 5.28201 38.1455 6.55338 38.3937L7.07855 38.4963L6.55338 38.599C4.33357 39.0327 2.93622 40.4016 3.02267 41.855L3.02155 41.8623L3.02244 41.8653C3.03935 42.1284 3.08862 42.393 3.20821 42.6567C3.58613 43.4924 4.43759 44.1819 5.60404 44.597C6.15945 44.7944 6.75897 44.8936 7.36677 44.9427C7.50149 44.9773 7.6457 45 7.79923 45C7.84951 45 7.8962 44.9913 7.94625 44.9903C7.95174 44.9903 7.957 44.9916 7.9626 44.9916C7.98981 44.9916 8.01668 44.984 8.044 44.9837C8.3581 44.973 8.66289 44.9446 8.95818 44.8958C9.1011 44.8766 9.2466 44.8821 9.3881 44.8544L24.5008 41.9011L35.6317 44.0765L36.0548 44.1726C36.1059 44.1841 36.1602 44.1831 36.213 44.19L39.6124 44.8544C39.995 44.9294 40.3939 44.9693 40.8652 44.9792C40.9189 45.0107 40.9772 44.9823 41.0332 44.9816C43.226 44.9816 45.167 44.0385 45.7922 42.6574C46.1696 41.8217 46.0296 40.94 45.3997 40.1732Z"/>
</mask>
<path d="M45.3997 40.1732C44.7676 39.4064 43.7201 38.8472 42.4464 38.599L41.9231 38.4967L42.4464 38.3944C43.7178 38.1455 44.7676 37.5862 45.3974 36.8194C46.0296 36.0526 46.1696 35.1701 45.7917 34.3359C45.4138 33.5001 44.5623 32.8107 43.3958 32.3956C42.2248 31.9789 40.8764 31.8885 39.6119 32.1382L24.5013 35.0919L9.3878 32.1382C8.12105 31.8908 6.77509 31.9805 5.60394 32.3956C4.43749 32.8108 3.58601 33.5003 3.20809 34.3353C2.83018 35.1702 2.97014 36.0527 3.60236 36.8195C4.23223 37.5863 5.28201 38.1455 6.55338 38.3937L7.07855 38.4963L6.55338 38.599C4.33357 39.0327 2.93622 40.4016 3.02267 41.855L3.02155 41.8623L3.02244 41.8653C3.03935 42.1284 3.08862 42.393 3.20821 42.6567C3.58613 43.4924 4.43759 44.1819 5.60404 44.597C6.15945 44.7944 6.75897 44.8936 7.36677 44.9427C7.50149 44.9773 7.6457 45 7.79923 45C7.84951 45 7.8962 44.9913 7.94625 44.9903C7.95174 44.9903 7.957 44.9916 7.9626 44.9916C7.98981 44.9916 8.01668 44.984 8.044 44.9837C8.3581 44.973 8.66289 44.9446 8.95818 44.8958C9.1011 44.8766 9.2466 44.8821 9.3881 44.8544L24.5008 41.9011L35.6317 44.0765L36.0548 44.1726C36.1059 44.1841 36.1602 44.1831 36.213 44.19L39.6124 44.8544C39.995 44.9294 40.3939 44.9693 40.8652 44.9792C40.9189 45.0107 40.9772 44.9823 41.0332 44.9816C43.226 44.9816 45.167 44.0385 45.7922 42.6574C46.1696 41.8217 46.0296 40.94 45.3997 40.1732Z" fill="white"/>
<path d="M45.3997 40.1732C44.7676 39.4064 43.7201 38.8472 42.4464 38.599L41.9231 38.4967L42.4464 38.3944C43.7178 38.1455 44.7676 37.5862 45.3974 36.8194C46.0296 36.0526 46.1696 35.1701 45.7917 34.3359C45.4138 33.5001 44.5623 32.8107 43.3958 32.3956C42.2248 31.9789 40.8764 31.8885 39.6119 32.1382L24.5013 35.0919L9.3878 32.1382C8.12105 31.8908 6.77509 31.9805 5.60394 32.3956C4.43749 32.8108 3.58601 33.5003 3.20809 34.3353C2.83018 35.1702 2.97014 36.0527 3.60236 36.8195C4.23223 37.5863 5.28201 38.1455 6.55338 38.3937L7.07855 38.4963L6.55338 38.599C4.33357 39.0327 2.93622 40.4016 3.02267 41.855L3.02155 41.8623L3.02244 41.8653C3.03935 42.1284 3.08862 42.393 3.20821 42.6567C3.58613 43.4924 4.43759 44.1819 5.60404 44.597C6.15945 44.7944 6.75897 44.8936 7.36677 44.9427C7.50149 44.9773 7.6457 45 7.79923 45C7.84951 45 7.8962 44.9913 7.94625 44.9903C7.95174 44.9903 7.957 44.9916 7.9626 44.9916C7.98981 44.9916 8.01668 44.984 8.044 44.9837C8.3581 44.973 8.66289 44.9446 8.95818 44.8958C9.1011 44.8766 9.2466 44.8821 9.3881 44.8544L24.5008 41.9011L35.6317 44.0765L36.0548 44.1726C36.1059 44.1841 36.1602 44.1831 36.213 44.19L39.6124 44.8544C39.995 44.9294 40.3939 44.9693 40.8652 44.9792C40.9189 45.0107 40.9772 44.9823 41.0332 44.9816C43.226 44.9816 45.167 44.0385 45.7922 42.6574C46.1696 41.8217 46.0296 40.94 45.3997 40.1732Z" stroke="#383838" stroke-width="4" mask="url(#path-1-outside-1)"/>
<mask id="path-2-outside-2" maskUnits="userSpaceOnUse" x="9" y="3" width="32" height="32" fill="black">
<rect fill="white" x="9" y="3" width="32" height="32"/>
<path d="M24.9798 33C17.2496 33 11.0122 30.2004 11.0122 24.5881C11.0122 24.3052 10.9848 22.2768 11.0122 22.0145L11.0372 21.7579C11.4641 17.7441 13.0754 15.0196 15.3303 12.8141C17.3456 10.8422 20.0296 9.36529 20.0296 6.89585C20.0296 6.58007 20.0486 5.15868 20.4389 5.01398C20.827 4.87086 22.3556 5.86974 22.7094 6.054C26.5162 8.03171 28.1111 11.4406 28.9532 13.8542C29.5785 15.6534 29.6175 17.9168 29.6449 19.3583C32.1167 18.6034 32.8903 15.5723 32.8994 15.5377C32.9633 15.2771 32.5978 14.4942 32.9265 14.3741C33.2529 14.2558 34.2323 14.8083 34.5632 14.9259C34.7345 14.986 38.7535 16.4687 38.9817 22.2398C39 22.433 39 22.6279 39 22.822C38.9999 28.4344 32.7099 33 24.9798 33Z"/>
</mask>
<path d="M24.9798 33C17.2496 33 11.0122 30.2004 11.0122 24.5881C11.0122 24.3052 10.9848 22.2768 11.0122 22.0145L11.0372 21.7579C11.4641 17.7441 13.0754 15.0196 15.3303 12.8141C17.3456 10.8422 20.0296 9.36529 20.0296 6.89585C20.0296 6.58007 20.0486 5.15868 20.4389 5.01398C20.827 4.87086 22.3556 5.86974 22.7094 6.054C26.5162 8.03171 28.1111 11.4406 28.9532 13.8542C29.5785 15.6534 29.6175 17.9168 29.6449 19.3583C32.1167 18.6034 32.8903 15.5723 32.8994 15.5377C32.9633 15.2771 32.5978 14.4942 32.9265 14.3741C33.2529 14.2558 34.2323 14.8083 34.5632 14.9259C34.7345 14.986 38.7535 16.4687 38.9817 22.2398C39 22.433 39 22.6279 39 22.822C38.9999 28.4344 32.7099 33 24.9798 33Z" fill="white"/>
<path d="M24.9798 33C17.2496 33 11.0122 30.2004 11.0122 24.5881C11.0122 24.3052 10.9848 22.2768 11.0122 22.0145L11.0372 21.7579C11.4641 17.7441 13.0754 15.0196 15.3303 12.8141C17.3456 10.8422 20.0296 9.36529 20.0296 6.89585C20.0296 6.58007 20.0486 5.15868 20.4389 5.01398C20.827 4.87086 22.3556 5.86974 22.7094 6.054C26.5162 8.03171 28.1111 11.4406 28.9532 13.8542C29.5785 15.6534 29.6175 17.9168 29.6449 19.3583C32.1167 18.6034 32.8903 15.5723 32.8994 15.5377C32.9633 15.2771 32.5978 14.4942 32.9265 14.3741C33.2529 14.2558 34.2323 14.8083 34.5632 14.9259C34.7345 14.986 38.7535 16.4687 38.9817 22.2398C39 22.433 39 22.6279 39 22.822C38.9999 28.4344 32.7099 33 24.9798 33Z" stroke="#383838" stroke-width="4" mask="url(#path-2-outside-2)"/>
</svg>
