<svg width="50" height="50" viewBox="0 0 50 50" fill="none" xmlns="http://www.w3.org/2000/svg">
<path d="M46.3997 39.1732C45.7676 38.4064 44.7201 37.8472 43.4464 37.599L42.9231 37.4967L43.4464 37.3944C44.7178 37.1455 45.7676 36.5862 46.3974 35.8194C47.0296 35.0526 47.1696 34.1701 46.7917 33.3359C46.4138 32.5001 45.5623 31.8107 44.3958 31.3956C43.2248 30.9789 41.8764 30.8885 40.6119 31.1382L25.5013 34.0919L10.3878 31.1382C9.12105 30.8908 7.77509 30.9805 6.60394 31.3956C5.43749 31.8108 4.58601 32.5003 4.20809 33.3353C3.83018 34.1702 3.97014 35.0527 4.60236 35.8195C5.23223 36.5863 6.28201 37.1455 7.55338 37.3937L8.07855 37.4963L7.55338 37.599C5.33357 38.0327 3.93622 39.4016 4.02267 40.855L4.02155 40.8623L4.02244 40.8653C4.03935 41.1284 4.08862 41.393 4.20821 41.6567C4.58613 42.4924 5.43759 43.1819 6.60404 43.597C7.15945 43.7944 7.75897 43.8936 8.36677 43.9427C8.50149 43.9773 8.6457 44 8.79923 44C8.84951 44 8.8962 43.9913 8.94625 43.9903C8.95174 43.9903 8.957 43.9916 8.9626 43.9916C8.98981 43.9916 9.01668 43.984 9.044 43.9837C9.3581 43.973 9.66289 43.9446 9.95818 43.8958C10.1011 43.8766 10.2466 43.8821 10.3881 43.8544L25.5008 40.9011L36.6317 43.0765L37.0548 43.1726C37.1059 43.1841 37.1602 43.1831 37.213 43.19L40.6124 43.8544C40.995 43.9294 41.3939 43.9693 41.8652 43.9792C41.9189 44.0107 41.9772 43.9823 42.0332 43.9816C44.226 43.9816 46.167 43.0385 46.7922 41.6574C47.1696 40.8217 47.0296 39.94 46.3997 39.1732Z" fill="white"/>
<path d="M25.9798 32C18.2496 32 12.0122 29.2004 12.0122 23.5881C12.0122 23.3052 11.9848 21.2768 12.0122 21.0145L12.0372 20.7579C12.4641 16.7441 14.0754 14.0196 16.3303 11.8141C18.3456 9.84219 21.0296 8.36529 21.0296 5.89585C21.0296 5.58007 21.0486 4.15868 21.4389 4.01398C21.827 3.87086 23.3556 4.86974 23.7094 5.054C27.5162 7.03171 29.1111 10.4406 29.9532 12.8542C30.5785 14.6534 30.6175 16.9168 30.6449 18.3583C33.1167 17.6034 33.8903 14.5723 33.8994 14.5377C33.9633 14.2771 33.5978 13.4942 33.9265 13.3741C34.2529 13.2558 35.2323 13.8083 35.5632 13.9259C35.7345 13.986 39.7535 15.4687 39.9817 21.2398C40 21.433 40 21.6279 40 21.822C39.9999 27.4344 33.7099 32 25.9798 32Z" fill="white"/>
</svg>