<svg width="50" height="50" viewBox="0 0 50 50" fill="none" xmlns="http://www.w3.org/2000/svg">
<path d="M11.7924 7.46459C11.7925 7.4646 11.7925 7.46549 11.7924 7.46722C11.7924 7.46544 11.7924 7.46457 11.7924 7.46459ZM10.796 7.913C10.796 7.91295 10.7969 7.91367 10.7987 7.91531C10.7969 7.91387 10.796 7.91305 10.796 7.913ZM12.1278 18.9144C9.93258 20.5694 7.4827 21.965 4.84361 23.061C4.4062 23.231 4.18671 23.5904 4.09194 23.863C3.99629 24.1382 3.98772 24.4175 4.01066 24.6477C4.05608 25.1036 4.25239 25.6284 4.63063 26.0306L4.63062 26.0306L4.63387 26.034C9.05207 30.6881 15.1686 30.2808 20.7195 29.8675C20.784 29.8627 20.8484 29.8579 20.9128 29.8531C26.6013 29.429 31.705 29.0485 35.4707 32.5011L36.5989 33.5355L37.093 32.0868L43.0755 14.545L43.0777 14.5383C43.1101 14.441 43.1563 14.344 43.217 14.2493L43.6678 13.546L43.056 12.9772C38.6401 8.87188 32.6968 9.32005 27.3057 9.72658C27.1318 9.7397 26.9584 9.75277 26.7857 9.76565C21.044 10.1937 15.9396 10.4258 12.2644 6.55381C11.9753 6.24735 11.306 5.75504 10.5447 6.12962C9.79753 6.49718 9.75791 7.31658 9.80947 7.73897L9.80944 7.73897L9.81033 7.74585C10.2962 11.5091 11.0704 15.24 12.1278 18.9144Z" fill="white" stroke="#383838" stroke-width="2"/>
<path d="M41.9311 11.2146L41.9311 11.2146C41.1531 11.0019 40.3343 11.4391 40.0782 12.2039C40.0782 12.204 40.0782 12.204 40.0782 12.204L29.3223 44.3224L29.3222 44.3226C28.9646 45.3909 29.5671 46.5194 30.6538 46.8166L30.6539 46.8166L32.437 47.304L32.7007 46.3394L32.437 47.304C33.4813 47.5894 34.5872 46.9992 34.931 45.9725L34.931 45.9724L45.6868 13.8539C45.6868 13.8539 45.6868 13.8539 45.6868 13.8538C45.9569 13.0474 45.4993 12.1901 44.6788 11.9658C44.6788 11.9658 44.6787 11.9658 44.6787 11.9658L41.9311 11.2146Z" fill="white" stroke="#383838" stroke-width="2"/>
</svg>
