<svg width="50" height="50" viewBox="0 0 50 50" fill="none" xmlns="http://www.w3.org/2000/svg">
<path d="M0.315294 25.3874C3.13108 24.2195 5.74215 22.7181 8.07217 20.9272C8.26802 20.777 8.34718 20.5442 8.27615 20.3272C7.18922 16.6066 6.39692 12.8272 5.9047 9.01468C5.82726 8.38059 6.22751 8.19869 6.64034 8.63776C14.7416 17.1753 29.1194 7.33599 37.4777 15.1065C37.3736 15.2689 37.291 15.4408 37.2316 15.6191L31.2491 33.1609C22.8751 25.4834 8.54873 35.2612 0.461687 26.7424C0.0488533 26.3034 -0.0189999 25.508 0.315294 25.3874Z" fill="white"/>
<path d="M39.8412 14.9332C39.9289 14.6714 39.7841 14.4001 39.5177 14.3273L36.77 13.5761C36.5037 13.5033 36.2167 13.6565 36.129 13.9184L25.3731 46.0369C25.1978 46.5606 25.4875 47.1032 26.0202 47.2489L27.8033 47.7363C28.336 47.8819 28.91 47.5755 29.0854 47.0518L39.8412 14.9332Z" fill="white"/>
</svg>