<svg width="50" height="50" viewBox="0 0 50 50" fill="none" xmlns="http://www.w3.org/2000/svg">
<path d="M5.21272 23.9905C8.0285 22.8226 10.6396 21.3212 12.9696 19.5303C13.1654 19.3801 13.2446 19.1473 13.1736 18.9303C12.0866 15.2097 11.2943 11.4303 10.8021 7.61781C10.7247 6.98372 11.1249 6.80182 11.5378 7.24089C19.639 15.7784 34.0168 5.93912 42.3751 13.7096C42.271 13.872 42.1884 14.0439 42.129 14.2222L36.1465 31.764C27.7725 24.0865 13.4462 33.8643 5.35911 25.3455C4.94627 24.9065 4.87842 24.1111 5.21272 23.9905Z" fill="white"/>
<path d="M44.7386 13.5363C44.8263 13.2745 44.6815 13.0032 44.4151 12.9304L41.6674 12.1792C41.4011 12.1064 41.1141 12.2596 41.0264 12.5215L30.2705 44.64C30.0952 45.1637 30.3849 45.7063 30.9176 45.852L32.7007 46.3394C33.2334 46.485 33.8074 46.1786 33.9828 45.6549L44.7386 13.5363Z" fill="white"/>
</svg>