<svg width="50" height="50" viewBox="0 0 50 50" fill="none" xmlns="http://www.w3.org/2000/svg">
<path d="M24.6923 12.2562V32.4804L25.1292 42.032C25.1506 42.4992 24.5762 42.7374 24.2607 42.3922L6.83274 23.3263C6.51849 22.9825 6.25483 22.5957 6.04969 22.1775C1.768 13.4497 11.428 4.48058 19.8147 9.39692L24.6923 12.2562Z" fill="white"/>
<path d="M24.6923 12.2562V32.4804L24.2554 42.032C24.234 42.4992 24.8084 42.7374 25.1239 42.3922L42.5519 23.3263C42.8661 22.9825 43.1298 22.5957 43.3349 22.1775C47.6166 13.4497 37.9566 4.48058 29.5699 9.39692L24.6923 12.2562Z" fill="white"/>
<rect x="22" y="12" width="6" height="24" fill="white"/>
</svg>
