<svg width="50" height="50" viewBox="0 0 50 50" fill="none" xmlns="http://www.w3.org/2000/svg">
<g clip-path="url(#clip0)">
<path d="M20 8.34483V28.569L20.4369 38.1206C20.4583 38.5878 19.8839 38.826 19.5684 38.4808L2.14044 19.4149C1.82619 19.0711 1.56253 18.6843 1.35739 18.2661V18.2661C-2.9243 9.53833 6.73567 0.569187 15.1224 5.48553L20 8.34483Z" fill="white"/>
<path d="M20 8.34483V28.569L19.5631 38.1206C19.5417 38.5878 20.1161 38.826 20.4316 38.4808L37.8596 19.4149C38.1738 19.0711 38.4375 18.6843 38.6426 18.2661V18.2661C42.9243 9.53833 33.2643 0.569187 24.8776 5.48553L20 8.34483Z" fill="white"/>
</g>
<defs>
<clipPath id="clip0">
<rect width="50" height="50" fill="white"/>
</clipPath>
</defs>
</svg>
