<svg width="50" height="50" viewBox="0 0 50 50" fill="none" xmlns="http://www.w3.org/2000/svg">
<path d="M25.6923 12.2562V11.6833L25.198 11.3935L20.3204 8.53422C11.0786 3.11661 0.43364 13.0002 5.15189 22.6179C5.39886 23.1214 5.71629 23.5871 6.09462 24.001L6.09464 24.001L23.5226 43.0668C24.4691 44.1024 26.1923 43.3878 26.1282 41.9862L25.6923 32.4576V12.2562Z" fill="white" stroke="#383838" stroke-width="2"/>
<path d="M24.1866 11.3935L23.6923 11.6833V12.2562V32.4575L23.2564 41.9862C23.2564 41.9863 23.2564 41.9863 23.2564 41.9863C23.1923 43.3878 24.9155 44.1024 25.862 43.0668L43.29 24.001L43.2901 24.0009C43.6683 23.5871 43.9858 23.1214 44.2327 22.6178C48.9509 13.0001 38.306 3.11663 29.0642 8.53422L24.1866 11.3935Z" fill="white" stroke="#383838" stroke-width="2"/>
<path d="M27 40L28 12H25L22.5 11L22 12L21.5 39L22 40L23 41L24.5 42.5L27 40Z" fill="white"/>
</svg>
