<svg width="50" height="50" viewBox="0 0 50 50" fill="none" xmlns="http://www.w3.org/2000/svg">
<g clip-path="url(#clip0)">
<path d="M20.9318 1.5874C21.7119 0.729298 23.056 0.712537 23.8574 1.55092L44.7676 23.428C45.9837 24.7003 45.0819 26.8099 43.3218 26.8099H40.3205V45C40.3205 46.1046 39.4251 47 38.3205 47H28V34C28 32.8954 27.1046 32 26 32H20C18.8954 32 18 32.8954 18 34V47H7.67949C6.57492 47 5.67949 46.1046 5.67949 45V26.8099H2.52141C0.785074 26.8099 -0.126457 24.7492 1.04159 23.4644L20.9318 1.5874Z" fill="white"/>
</g>
<defs>
<clipPath id="clip0">
<rect width="50" height="50" fill="white"/>
</clipPath>
</defs>
</svg>
