<svg width="50" height="50" viewBox="0 0 50 50" fill="none" xmlns="http://www.w3.org/2000/svg">
<path d="M6.83362 28.1542H8.7233V44.1332C8.7233 45.6976 9.97166 47 11.5533 47H20.9967H21.9967V46V33.8656C21.9967 33.3679 22.3869 32.9987 22.8267 32.9987H28.3167C28.7565 32.9987 29.1468 33.3679 29.1468 33.8656V46V47H30.1468H39.5901C41.1718 47 42.4201 45.6976 42.4201 44.1332V28.1542H44.1664C46.6927 28.1542 47.9024 25.1103 46.219 23.3137L27.086 2.89322L27.0859 2.89318C25.9505 1.68141 24.0373 1.70624 22.9327 2.94568L4.73304 23.3661L4.73302 23.3661C3.1165 25.18 4.34145 28.1542 6.83362 28.1542Z" fill="white" stroke="#383838" stroke-width="2"/>
</svg>
