<svg width="50" height="50" viewBox="0 0 50 50" fill="none" xmlns="http://www.w3.org/2000/svg">
<path d="M41.6839 8.30043C39.5455 6.17207 36.7024 5 33.6782 5C30.654 5 27.8109 6.17207 25.6725 8.30043C23.8421 10.1221 22.7207 12.4353 22.4295 14.9898C22.1586 17.3656 22.6599 19.7905 23.843 21.8538L6.42424 39.1905C5.63874 39.9723 5.63874 41.2438 6.42423 42.0256L7.8125 43.4074C8.59279 44.184 9.85401 44.184 10.6343 43.4074L11.4301 42.6153L12.4152 43.5958C13.1954 44.3724 14.4566 44.3724 15.2369 43.5958L16.3496 42.4883C17.1351 41.7065 17.1351 40.435 16.3496 39.6532L15.3779 38.6861L18.3347 35.7432L19.3198 36.7237C20.1001 37.5003 21.3613 37.5003 22.1415 36.7237L23.2542 35.6162C24.0397 34.8344 24.0397 33.5629 23.2542 32.7811L22.2825 31.814L28.0664 26.0573C30.1395 27.2349 32.5755 27.7336 34.9629 27.4642C37.5295 27.1743 39.8535 26.0582 41.6839 24.2365C43.8224 22.1081 45 19.2784 45 16.2685C44.9999 13.2585 43.8223 10.4287 41.6839 8.30043ZM38.8532 16.7404C38.0745 17.5155 37.0515 17.9031 36.0285 17.9031C35.0056 17.9031 33.9827 17.5155 33.2039 16.7404C31.6463 15.1902 31.6463 12.6679 33.2039 11.1177C34.7614 9.56745 37.2957 9.56745 38.8532 11.1177C40.4107 12.6679 40.4107 15.1903 38.8532 16.7404Z" fill="white"/>
</svg>