<svg width="50" height="50" viewBox="0 0 50 50" fill="none" xmlns="http://www.w3.org/2000/svg">
<path d="M5.2787 27.9592C5.65878 29.1546 6.05174 30.391 6.24784 31.6362C6.32799 32.1436 6.64231 35.8349 6.81223 37.8629C6.87735 38.64 7.48847 39.2717 8.2879 39.3883L11.0808 39.7954C11.4835 39.8541 11.8046 40.1502 11.883 40.5355L12.251 42.3503C12.411 43.139 13.7498 43.6955 14.5833 43.6951V46.4286H19.7917V44.898V43.8776H21.875V46.4286H27.987V43.8776H30.2083V46.4286H35.4167V43.8776L35.6201 43.6951C36.4392 43.6946 37.1472 43.1441 37.3211 42.3725L37.7425 40.5042C37.8355 40.1354 38.1516 39.8583 38.5411 39.8036L41.9414 39.3275C42.7585 39.2131 43.38 38.5616 43.4296 37.7669C43.5601 35.6803 43.8035 31.8815 43.879 31.361C44.0578 30.132 44.434 28.9173 44.7973 27.7355C45.3067 26.0818 45.8333 24.3748 45.8333 22.5995C45.834 11.2623 36.4878 2.04082 25.0003 2.04082C13.5127 2.04082 4.16667 11.2673 4.16667 22.607C4.16678 24.4614 4.73204 26.2398 5.2787 27.9592ZM27.7149 26.9129C27.847 23.6928 30.8419 22.8831 34.1817 23.0104C37.5214 23.1377 39.9413 24.1539 39.8092 27.374C39.6771 30.5941 36.8627 33.1013 33.523 32.974C30.1832 32.8467 27.5829 30.1331 27.7149 26.9129ZM25.7501 33.2317L27.9179 36.3269C28.1102 36.6014 28.1365 36.9537 27.987 37.252L27.676 37.8726C27.515 38.194 27.1775 38.398 26.8075 38.398H24.9506H23.0938C22.7237 38.398 22.3862 38.1938 22.2252 37.8726L21.9143 37.252C21.7648 36.9537 21.7912 36.6015 21.9834 36.3269L24.1512 33.2317C24.5337 32.6855 25.3676 32.6855 25.7501 33.2317ZM15.8185 23.0105C19.1583 22.8831 22.1532 23.6928 22.2853 26.913C22.4173 30.1332 19.817 32.8468 16.4772 32.9741C13.1375 33.1014 10.3231 30.5942 10.191 27.3741C10.059 24.1539 12.4788 23.1377 15.8185 23.0105Z" fill="white"/>
</svg>