<svg width="50" height="50" viewBox="0 0 50 50" fill="none" xmlns="http://www.w3.org/2000/svg">
<path d="M9.96889 38.0382L9.21851 37.4306L8.58498 38.1592L6.48545 40.5739C6.48543 40.5739 6.48541 40.5739 6.48538 40.5739C5.75159 41.4178 5.86251 42.6874 6.73172 43.3912C6.73172 43.3912 6.73173 43.3912 6.73174 43.3912L10.1037 46.1216L10.1037 46.1216C10.9517 46.8082 12.2052 46.6983 12.921 45.8753L12.921 45.8753L15.0207 43.4606L15.7003 42.679L14.8954 42.0272L9.96889 38.0382Z" fill="white" stroke="#383838" stroke-width="2"/>
<path d="M29.8514 36.1779L29.8514 36.1778L13.0315 22.5585C13.0314 22.5584 13.0314 22.5584 13.0314 22.5584C12.2694 21.9412 11.1441 22.0397 10.5008 22.7795C10.5008 22.7795 10.5008 22.7795 10.5008 22.7795L8.10581 25.5337L8.10569 25.5338C7.44446 26.2945 7.54483 27.4399 8.32775 28.0741L8.32792 28.0743L25.148 41.6939L25.1481 41.6939C25.9101 42.3108 27.0353 42.2124 27.6786 41.4726L30.0735 38.7184L29.3189 38.0622L30.0735 38.7184C30.7348 37.9578 30.6347 36.8122 29.8514 36.1779Z" fill="white" stroke="#383838" stroke-width="2"/>
<path d="M19.9461 37.5324L20.6257 36.7508L19.8208 36.099L14.8944 32.1099L14.144 31.5023L13.5105 32.2309L9.37678 36.9849L8.69719 37.7665L9.50211 38.4183L14.4285 42.4073L15.1789 43.0149L15.8124 42.2863L19.9461 37.5324Z" fill="white" stroke="#383838" stroke-width="2"/>
<path d="M42.4826 3.04552L42.4825 3.04553L29.4241 6.29899C28.9257 6.42314 28.4879 6.73187 28.2085 7.16971C28.2085 7.16972 28.2085 7.16973 28.2084 7.16975L17.1571 24.4843L16.6814 25.2295L17.3627 25.7929L25.7999 32.7706L26.466 33.3215L27.1075 32.7421L42.6075 18.7421L42.8917 18.4854L42.9317 18.1045L44.3422 4.68704C44.4904 3.59843 43.4696 2.79967 42.4826 3.04552Z" fill="white" stroke="#383838" stroke-width="2"/>
</svg>
