<svg width="50" height="50" viewBox="0 0 50 50" fill="none" xmlns="http://www.w3.org/2000/svg">
<g clip-path="url(#clip0)">
<path d="M17.7558 35.3017L22.6823 39.2907L20.5826 41.7054C20.2202 42.1221 19.5785 42.1783 19.1492 41.8307L15.7772 39.1003C15.3479 38.7527 15.2938 38.1331 15.6562 37.7164L17.7558 35.3017Z" fill="white"/>
<path d="M19.6716 19.922C19.9615 19.5886 20.4749 19.5437 20.8182 19.8218L37.6383 33.4413C37.9817 33.7194 38.025 34.2151 37.7351 34.5485L35.3402 37.3027C35.0503 37.6361 34.5369 37.681 34.1935 37.403L17.3734 23.7834C17.0301 23.5053 16.9867 23.0097 17.2766 22.6762L19.6716 19.922Z" fill="white"/>
<rect width="6.33893" height="6.29984" transform="matrix(0.77717 0.629291 -0.656169 0.754614 22.6813 29.3734)" fill="white"/>
<path d="M51.3859 2.04373C51.4129 1.69614 51.0699 1.4338 50.7275 1.54024L36.9777 5.81493L28.4084 24.5919L34.4296 29.3858L50.0342 15.7757C50.2299 15.605 50.3503 15.3676 50.3701 15.1135L51.3859 2.04373Z" fill="white"/>
<path d="M50.7033 1.50213C51.0547 1.4146 51.3827 1.70197 51.3287 2.05L49.2455 15.4817L32.0464 27.5525L25.979 22.5086L37.0304 5.19399C37.1693 4.97635 37.3896 4.81917 37.6448 4.75559L50.7033 1.50213Z" fill="white"/>
<path d="M41.5336 11.5137C41.8399 11.1614 42.3822 11.114 42.745 11.4078V11.4078C43.1078 11.7015 43.1536 12.2252 42.8473 12.5774L30.6628 26.5899L29.3491 25.5262L41.5336 11.5137Z" fill="#2B2C31"/>
</g>
<defs>
<clipPath id="clip0">
<rect width="50" height="50" fill="white"/>
</clipPath>
</defs>
</svg>
