<svg width="50" height="50" viewBox="0 0 50 50" fill="none" xmlns="http://www.w3.org/2000/svg">
<path d="M9.33961 38.8154L14.2661 42.8044L12.1664 45.2191C11.804 45.6358 11.1623 45.692 10.733 45.3444L7.36101 42.614C6.93171 42.2664 6.87761 41.6468 7.24001 41.2301L9.33961 38.8154Z" fill="white"/>
<path d="M11.2554 23.4357C11.5453 23.1023 12.0587 23.0574 12.402 23.3355L29.2221 36.955C29.5655 37.2331 29.6088 37.7288 29.3189 38.0622L26.924 40.8164C26.6341 41.1498 26.1207 41.1947 25.7773 40.9167L8.95721 27.2971C8.61391 27.019 8.57051 26.5234 8.86041 26.1899L11.2554 23.4357Z" fill="white"/>
<path d="M19.1915 36.8762L14.2651 32.8871L10.1314 37.6411L15.0578 41.6301L19.1915 36.8762Z" fill="white"/>
<path d="M42.9697 5.55747C42.9967 5.20988 42.6537 4.94754 42.3113 5.05398L28.5615 9.32867L19.9922 28.1056L26.0134 32.8995L41.618 19.2894C41.8137 19.1187 41.9341 18.8813 41.9539 18.6272L42.9697 5.55747Z" fill="white"/>
<path d="M42.2871 5.01587C42.6385 4.92834 42.9665 5.21571 42.9125 5.56374L40.8293 18.9954L23.6302 31.0662L17.5628 26.0223L28.6142 8.70773C28.7531 8.49009 28.9734 8.33291 29.2286 8.26933L42.2871 5.01587Z" fill="white"/>
</svg>